<svg width="32" height="32" viewBox="0 0 32 32" fill="none" xmlns="http://www.w3.org/2000/svg">
<g clip-path="url(#clip0_994_25107)">
<path d="M16.0002 31.6663C24.6527 31.6663 31.6668 24.6522 31.6668 15.9997C31.6668 7.34712 24.6527 0.333008 16.0002 0.333008C7.34761 0.333008 0.333496 7.34712 0.333496 15.9997C0.333496 24.6522 7.34761 31.6663 16.0002 31.6663Z" fill="#00A9BE"/>
<path d="M25.1151 14.291H6.88477V25.1153H25.1151V14.291Z" fill="white"/>
<path fill-rule="evenodd" clip-rule="evenodd" d="M15.6876 17.5458C15.6129 17.6489 15.5436 17.7559 15.48 17.8662C15.3518 18.0893 15.2245 18.3656 15.1718 18.6345C15.1348 18.8279 15.0321 19.0027 14.881 19.1291C14.7299 19.2555 14.5398 19.3258 14.3428 19.3281H14.3406H14.3386C13.9472 19.3301 13.4319 19.4819 12.973 19.6613C12.7706 19.7409 12.5712 19.828 12.3754 19.9225C12.3353 19.9787 12.2899 20.0309 12.2398 20.0784C12.1319 20.1812 12.0005 20.2698 11.8704 20.3364C11.7427 20.4019 11.5807 20.4646 11.4078 20.486C11.2545 20.5048 10.9705 20.5031 10.7426 20.2874L10.7369 20.2832L10.7341 20.2812C10.6918 20.2504 10.6519 20.2165 10.6147 20.1798C10.5655 20.1299 10.5293 20.0801 10.5151 20.061L10.5131 20.0581L10.5091 20.0524C10.2869 19.8154 10.2963 19.5226 10.3236 19.3654C10.3535 19.1916 10.4267 19.0333 10.4988 18.9116C10.5726 18.7866 10.6669 18.6635 10.7717 18.5641C10.809 18.5282 10.8537 18.49 10.905 18.4544L10.9255 18.4094C10.9888 18.2701 11.0734 18.0745 11.158 17.8497C11.3337 17.3834 11.4838 16.8584 11.4884 16.4616V16.4582C11.4916 16.2612 11.5628 16.0713 11.69 15.9207C11.8172 15.7702 11.9925 15.6682 12.1863 15.6322C12.4552 15.5809 12.7323 15.455 12.9562 15.3279C13.067 15.265 13.1744 15.1964 13.2781 15.1223L14.056 14.3486L16.7581 16.4802L15.6876 17.5458Z" fill="#0C111D"/>
<path d="M25.1151 14.291H6.88477V16.5698H25.1151V14.291Z" fill="#0C111D"/>
<path d="M20.5573 18.7059C20.5573 18.7437 20.5423 18.7799 20.5156 18.8066C20.4889 18.8333 20.4527 18.8483 20.4149 18.8483H17.2816C17.2438 18.8483 17.2076 18.8333 17.1809 18.8066C17.1542 18.7799 17.1392 18.7437 17.1392 18.7059C17.1392 18.6681 17.1542 18.6319 17.1809 18.6052C17.2076 18.5785 17.2438 18.5635 17.2816 18.5635H20.4149C20.4336 18.5635 20.4521 18.5672 20.4694 18.5743C20.4867 18.5815 20.5024 18.592 20.5156 18.6052C20.5289 18.6184 20.5393 18.6341 20.5465 18.6514C20.5537 18.6687 20.5573 18.6872 20.5573 18.7059Z" fill="#0C111D"/>
<path d="M22.1081 21.0282C22.1081 20.973 22.0633 20.9282 22.0081 20.9282H21.4335C21.3783 20.9282 21.3335 20.8835 21.3335 20.8282V18.4974C21.3335 18.4421 21.3783 18.3974 21.4335 18.3974H22.0081C22.0633 18.3974 22.1081 18.3526 22.1081 18.2974V18.1C22.1081 18.0448 22.1529 18 22.2081 18H22.2827C22.3379 18 22.3827 18.0448 22.3827 18.1V18.2974C22.3827 18.3526 22.4274 18.3974 22.4827 18.3974H22.4933C22.7256 18.3974 22.9059 18.4565 23.0343 18.5748C23.1627 18.6906 23.2269 18.8475 23.2269 19.0455C23.2269 19.1304 23.2146 19.2037 23.1901 19.2654C23.1682 19.3272 23.1354 19.3799 23.0917 19.4236C23.0507 19.4673 23.0015 19.5033 22.9442 19.5316C22.8894 19.5562 22.8296 19.5749 22.7649 19.5877C22.7595 19.5888 22.7556 19.5935 22.7556 19.5989C22.7556 19.6046 22.7598 19.6094 22.7654 19.6102C22.8357 19.6207 22.9035 19.6382 22.9687 19.6628C23.037 19.686 23.0985 19.7207 23.1532 19.767C23.2078 19.8133 23.2515 19.8724 23.2843 19.9444C23.3171 20.0165 23.3335 20.1039 23.3335 20.2068C23.3335 20.3097 23.3157 20.4061 23.2802 20.4961C23.2447 20.5836 23.1942 20.6595 23.1286 20.7238C23.063 20.7881 22.9851 20.8382 22.895 20.8742C22.8075 20.9102 22.7105 20.9282 22.604 20.9282H22.4827C22.4274 20.9282 22.3827 20.973 22.3827 21.0282V21.2333C22.3827 21.2886 22.3379 21.3333 22.2827 21.3333H22.2081C22.1529 21.3333 22.1081 21.2886 22.1081 21.2333V21.0282ZM22.522 20.6659C22.6778 20.6659 22.798 20.6325 22.8827 20.5656C22.9674 20.4961 23.0097 20.3997 23.0097 20.2762V20.1335C23.0097 20.0075 22.9674 19.911 22.8827 19.8441C22.798 19.7747 22.6778 19.74 22.522 19.74H22.4745C22.4193 19.74 22.3745 19.7847 22.3745 19.84V20.5659C22.3745 20.6211 22.4193 20.6659 22.4745 20.6659H22.522ZM22.4892 19.5123C22.6286 19.5123 22.731 19.4815 22.7966 19.4198C22.8649 19.3555 22.8991 19.2654 22.8991 19.1497V19.0185C22.8991 18.9028 22.8649 18.814 22.7966 18.7523C22.731 18.6906 22.6286 18.6597 22.4892 18.6597H22.4745C22.4193 18.6597 22.3745 18.7045 22.3745 18.7597V19.4123C22.3745 19.4676 22.4193 19.5123 22.4745 19.5123H22.4892ZM22.0163 20.6659C22.0715 20.6659 22.1163 20.6211 22.1163 20.5659V19.84C22.1163 19.7847 22.0715 19.74 22.0163 19.74H21.745C21.6897 19.74 21.645 19.7847 21.645 19.84V20.5659C21.645 20.6211 21.6897 20.6659 21.745 20.6659H22.0163ZM22.0163 19.5123C22.0715 19.5123 22.1163 19.4676 22.1163 19.4123V18.7597C22.1163 18.7045 22.0715 18.6597 22.0163 18.6597H21.745C21.6897 18.6597 21.645 18.7045 21.645 18.7597V19.4123C21.645 19.4676 21.6897 19.5123 21.745 19.5123H22.0163Z" fill="#1D2939"/>
<path d="M20.5573 19.8455C20.5573 19.8833 20.5423 19.9195 20.5156 19.9463C20.4889 19.973 20.4527 19.988 20.4149 19.988H17.2816C17.2438 19.988 17.2076 19.973 17.1809 19.9463C17.1542 19.9195 17.1392 19.8833 17.1392 19.8455C17.1392 19.8078 17.1542 19.7715 17.1809 19.7448C17.2076 19.7181 17.2438 19.7031 17.2816 19.7031H20.4149C20.4527 19.7031 20.4889 19.7181 20.5156 19.7448C20.5423 19.7715 20.5573 19.8078 20.5573 19.8455Z" fill="#0C111D"/>
<path d="M20.5573 20.9852C20.5573 21.023 20.5423 21.0592 20.5156 21.0859C20.4889 21.1126 20.4527 21.1276 20.4149 21.1276H17.2816C17.2438 21.1276 17.2076 21.1126 17.1809 21.0859C17.1542 21.0592 17.1392 21.023 17.1392 20.9852C17.1392 20.9474 17.1542 20.9112 17.1809 20.8845C17.2076 20.8578 17.2438 20.8428 17.2816 20.8428H20.4149C20.4336 20.8428 20.4521 20.8465 20.4694 20.8536C20.4867 20.8608 20.5024 20.8713 20.5156 20.8845C20.5289 20.8977 20.5393 20.9134 20.5465 20.9307C20.5537 20.948 20.5573 20.9665 20.5573 20.9852Z" fill="#0C111D"/>
<path d="M17.709 23.4064H14.8605C14.6212 23.4064 14.4341 23.3381 14.3033 23.2036C14.0595 22.9527 14.0712 22.5462 14.0811 22.1876C14.0865 22.0078 14.0937 21.7617 14.0395 21.7059C14.0367 21.7033 14.031 21.6973 14.0059 21.6973C13.8453 21.6973 13.7769 22.1035 13.7219 22.4297C13.6447 22.8874 13.5573 23.4064 13.1514 23.4064C12.9842 23.4064 12.858 23.3529 12.776 23.2466C12.5979 23.0167 12.699 22.6242 12.7973 22.2445C12.8443 22.0625 12.9226 21.7577 12.8813 21.6948C12.7361 21.697 12.6563 21.9574 12.5729 22.2331C12.4219 22.7282 12.2151 23.4064 11.442 23.4064C11.298 23.4088 11.1555 23.3764 11.0267 23.3118C10.898 23.2472 10.7867 23.1524 10.7025 23.0355C10.2944 23.2555 9.844 23.4064 9.44835 23.4064C8.70319 23.4064 8.36963 22.9464 8.36963 22.4903C8.36963 21.9078 8.87951 21.3057 9.7332 21.3057C9.77097 21.3057 9.8072 21.3207 9.83391 21.3474C9.86062 21.3741 9.87562 21.4103 9.87562 21.4481C9.87562 21.4859 9.86062 21.5221 9.83391 21.5488C9.8072 21.5755 9.77097 21.5905 9.7332 21.5905C9.05782 21.5905 8.65448 22.048 8.65448 22.4903C8.65448 22.7954 8.86299 23.1216 9.44835 23.1216C9.81267 23.1216 10.2109 22.9831 10.5669 22.7897C10.5111 22.6483 10.4824 22.4977 10.4824 22.3456C10.4824 22.0913 10.5621 21.856 10.7068 21.6828C10.8746 21.482 11.1167 21.3757 11.407 21.3757C11.5659 21.3757 11.6861 21.4037 11.7753 21.4615C11.875 21.5264 11.9302 21.6284 11.9302 21.7486C11.9302 22.0753 11.505 22.5379 10.9486 22.8914C11.0079 22.9649 11.0832 23.0239 11.1688 23.0638C11.2543 23.1037 11.3479 23.1235 11.4423 23.1216C11.9641 23.1216 12.1268 22.7191 12.3003 22.1502C12.4108 21.7876 12.5247 21.4125 12.8665 21.4125C12.9959 21.4125 13.0685 21.4714 13.1069 21.5207C13.2357 21.6871 13.1605 21.9785 13.0728 22.316C13.0035 22.5846 12.9084 22.9527 13.001 23.0723C13.0104 23.0845 13.0391 23.1216 13.1514 23.1216C13.3166 23.1216 13.3855 22.7117 13.4411 22.3824C13.5177 21.9278 13.6043 21.4125 14.0059 21.4125C14.1261 21.4125 14.2016 21.464 14.2435 21.5073C14.3816 21.6495 14.3742 21.9024 14.366 22.1958C14.3574 22.498 14.3477 22.8404 14.5075 23.0051C14.5839 23.0834 14.6992 23.1216 14.8605 23.1216H17.709C17.7467 23.1216 17.783 23.1366 17.8097 23.1633C17.8364 23.19 17.8514 23.2262 17.8514 23.264C17.8514 23.3018 17.8364 23.338 17.8097 23.3647C17.783 23.3914 17.7467 23.4064 17.709 23.4064ZM11.407 21.6603C11.201 21.6603 11.0389 21.7292 10.9253 21.8651C10.8233 21.987 10.7672 22.1576 10.7672 22.3454C10.7672 22.4465 10.7832 22.5479 10.8148 22.6425C11.2927 22.3328 11.6457 21.9511 11.6457 21.7483C11.6457 21.7241 11.6397 21.7127 11.62 21.7002C11.5972 21.6854 11.5391 21.6603 11.407 21.6603Z" fill="#0C111D"/>
<path d="M20.5968 7.99456C20.7424 7.83083 20.92 7.69865 21.1186 7.60614C21.3172 7.51364 21.5327 7.46277 21.7517 7.45668C21.9707 7.45058 22.1887 7.48938 22.3921 7.5707C22.5956 7.65201 22.7803 7.77411 22.9348 7.92948C23.0893 8.08485 23.2103 8.27021 23.2905 8.47413C23.3706 8.67805 23.4082 8.89622 23.4009 9.11521C23.3935 9.33419 23.3415 9.54936 23.2478 9.74746C23.1542 9.94556 23.021 10.1224 22.8565 10.2671L15.6601 16.7702L14.0532 15.1542L20.5968 7.99456Z" fill="white"/>
<path d="M13.6494 15.5556L15.2562 17.1719L15.6602 16.7702L14.0536 15.1543L13.6494 15.5556Z" fill="white"/>
<path d="M12.0579 16.4677C12.0471 17.4707 11.3324 18.881 11.3324 18.881C11.1478 18.8804 10.7365 19.4735 10.929 19.6672C10.9618 19.7002 10.9832 19.7418 11.0193 19.7783C11.0555 19.8147 11.0971 19.8364 11.1299 19.8691C11.3224 20.0628 11.9468 19.6928 11.9474 19.4997C11.9474 19.4997 13.3323 18.7636 14.3355 18.7582C14.4012 18.7576 14.4647 18.7343 14.5151 18.6921C14.5655 18.65 14.5998 18.5917 14.6121 18.5272C14.7511 17.8145 15.2565 17.1716 15.2565 17.1716L13.6496 15.5557C13.6496 15.5557 13.0036 16.0573 12.2903 16.1923C12.2257 16.2043 12.1673 16.2383 12.1249 16.2885C12.0826 16.3387 12.0589 16.4021 12.0579 16.4677Z" fill="white"/>
<path d="M22.9389 7.93033C22.7843 7.77457 22.5993 7.65225 22.3955 7.57095C22.1916 7.48966 21.9733 7.45113 21.7539 7.45776C21.5349 7.46468 21.3196 7.51599 21.121 7.60858C20.9224 7.70116 20.7447 7.83311 20.5986 7.99641L20.1394 8.49917C19.9873 8.38276 19.8076 8.30796 19.6178 8.28211C19.2219 8.23226 18.8197 8.40716 18.4226 8.80225C17.792 9.42948 16.3167 11.1055 16.2543 11.1767C16.2515 11.1799 16.2509 11.1841 16.2481 11.1876C16.2298 11.2126 16.2139 11.2388 16.2019 11.2665C16.2014 11.2682 16.1999 11.2696 16.1991 11.2713C16.1698 11.3389 16.1584 11.4129 16.1658 11.4861C16.1732 11.5594 16.1992 11.6296 16.2413 11.69C16.2835 11.7504 16.3404 11.799 16.4066 11.8312C16.4729 11.8634 16.5462 11.8781 16.6198 11.8739C16.6933 11.8698 16.7646 11.8469 16.8268 11.8074C16.8889 11.768 16.94 11.7132 16.9751 11.6485C17.0102 11.5837 17.0281 11.5111 17.0272 11.4374C17.0263 11.3638 17.0066 11.2916 16.9699 11.2277C17.441 10.6968 18.1862 9.84052 18.6391 9.39046C18.9037 9.12726 19.1458 9.0062 19.3578 9.03126C19.4415 9.04123 19.5141 9.07456 19.5771 9.11473L18.6733 10.104L20.7418 12.1845L22.8603 10.2709C23.0244 10.1257 23.1574 9.94872 23.2511 9.75061C23.3448 9.5525 23.3973 9.33743 23.4055 9.11843C23.4132 8.89902 23.3759 8.68034 23.2956 8.47597C23.2154 8.2716 23.0938 8.08588 22.9389 7.93033Z" fill="white"/>
</g>
<defs>
<clipPath id="clip0_994_25107">
<rect width="32" height="32" fill="white"/>
</clipPath>
</defs>
</svg>
