<svg width="32" height="32" viewBox="0 0 32 32" fill="none" xmlns="http://www.w3.org/2000/svg">
<g clip-path="url(#clip0_994_28727)">
<path d="M16.0002 31.6663C24.6527 31.6663 31.6668 24.6522 31.6668 15.9997C31.6668 7.34712 24.6527 0.333008 16.0002 0.333008C7.34761 0.333008 0.333496 7.34712 0.333496 15.9997C0.333496 24.6522 7.34761 31.6663 16.0002 31.6663Z" fill="#47CD89"/>
<path d="M9.16357 7.97858C9.16357 7.68849 9.27882 7.41027 9.48395 7.20514C9.68908 7.00001 9.96729 6.88477 10.2574 6.88477H18.2787L22.8363 10.7131V24.0213C22.8363 24.3114 22.7211 24.5896 22.5159 24.7947C22.3108 24.9998 22.0326 25.1151 21.7425 25.1151H10.2574C10.1137 25.1151 9.97151 25.0868 9.83881 25.0318C9.7061 24.9768 9.58552 24.8963 9.48395 24.7947C9.38238 24.6931 9.30181 24.5725 9.24684 24.4398C9.19187 24.3071 9.16357 24.1649 9.16357 24.0213V7.97858Z" fill="white"/>
<path d="M18.2788 6.88477V9.61931C18.2788 9.90941 18.394 10.1876 18.5992 10.3928C18.8043 10.5979 19.0825 10.7131 19.3726 10.7131H22.8364" fill="#1D2939"/>
<path d="M20.7514 15.7364C20.5009 15.1168 20.1271 14.5545 19.6527 14.0838C18.6458 13.0828 17.4247 12.582 15.9904 12.582C14.5682 12.582 13.369 13.0797 12.3922 14.0744C11.898 14.5689 11.5209 15.1289 11.2614 15.7544C11.0034 16.3738 10.8713 17.0383 10.8726 17.7093C10.8726 18.3929 11.0008 19.043 11.2571 19.6594C11.5135 20.2761 11.8872 20.8301 12.3788 21.3212C12.8702 21.8125 13.4257 22.188 14.0452 22.4472C14.661 22.7061 15.3227 22.8386 15.9907 22.8366C16.6681 22.8366 17.3244 22.7053 17.959 22.4429C18.5955 22.1794 19.1741 21.7936 19.6621 21.3075C20.1368 20.8485 20.5096 20.2947 20.7562 19.6822C21.0032 19.0692 21.1271 18.4115 21.1271 17.7093C21.1271 17.0134 21.0018 16.356 20.7514 15.7364ZM17.607 21.5736C17.1008 21.7851 16.5576 21.8939 16.009 21.8937C15.4535 21.8937 14.9223 21.7883 14.4158 21.5778C13.9054 21.3648 13.4418 21.0537 13.0514 20.662C12.6554 20.2724 12.3396 19.8088 12.1219 19.2976C11.9066 18.7958 11.796 18.2553 11.7969 17.7093C11.7969 17.1539 11.9051 16.6212 12.1219 16.1116C12.3417 15.5975 12.6571 15.1299 13.0514 14.7335C13.8509 13.9157 14.8371 13.5067 16.009 13.5067C17.1686 13.5067 18.1604 13.9188 18.9848 14.7429C19.3745 15.1294 19.6825 15.5903 19.8906 16.0982C20.099 16.6097 20.2048 17.1572 20.2019 17.7096C20.2019 18.888 19.8023 19.8676 19.0027 20.6489C18.6006 21.0432 18.1268 21.357 17.607 21.5736Z" fill="#1D2939"/>
<path d="M17.648 18.616C17.4218 18.616 17.2509 18.5334 17.1352 18.3685C17.019 18.2036 16.9609 17.9842 16.9609 17.7094C16.9609 17.1049 17.1899 16.803 17.6477 16.803C17.7448 16.803 17.8474 16.8335 17.9545 16.8944C18.0613 16.9554 18.1513 17.0625 18.2245 17.2149L18.9024 16.8577C18.6338 16.3632 18.1818 16.1159 17.5468 16.1162C17.1133 16.1162 16.755 16.2598 16.4713 16.5466C16.1873 16.8335 16.0454 17.2211 16.0454 17.7094C16.0454 18.2098 16.1841 18.6004 16.4624 18.8812C16.7399 19.1624 17.1105 19.3025 17.5745 19.3025C17.8551 19.3025 18.1145 19.231 18.3527 19.0875C18.5907 18.9442 18.7864 18.7405 18.9201 18.497L18.2792 18.1765C18.1576 18.4693 17.9468 18.616 17.648 18.616Z" fill="#1D2939"/>
<path d="M14.6903 18.616C14.4644 18.616 14.2935 18.5334 14.1776 18.3685C14.0613 18.2036 14.0038 17.9842 14.0038 17.7094C14.0038 17.1049 14.2325 16.803 14.6903 16.803C14.782 16.803 14.8811 16.8335 14.988 16.8944C15.0948 16.9554 15.1845 17.0625 15.258 17.2149L15.9448 16.8577C15.6699 16.3632 15.2155 16.1159 14.5803 16.1162C14.1468 16.1162 13.7885 16.2598 13.5045 16.5466C13.2208 16.8335 13.0786 17.2211 13.0786 17.7094C13.0786 18.2098 13.219 18.6004 13.4996 18.8812C13.7802 19.1624 14.1499 19.3025 14.6077 19.3025C14.885 19.3053 15.1576 19.2308 15.395 19.0875C15.6318 18.9456 15.8251 18.7413 15.9536 18.497L15.3221 18.1765C15.2002 18.4693 14.9897 18.616 14.6903 18.616Z" fill="#1D2939"/>
</g>
<defs>
<clipPath id="clip0_994_28727">
<rect width="32" height="32" fill="white"/>
</clipPath>
</defs>
</svg>
