<svg width="40" height="40" viewBox="0 0 40 40" fill="none" xmlns="http://www.w3.org/2000/svg">
<g clip-path="url(#clip0_1059_15058)">
<path d="M19.9998 39.5827C30.8155 39.5827 39.5832 30.815 39.5832 19.9993C39.5832 9.18365 30.8155 0.416016 19.9998 0.416016C9.18414 0.416016 0.416504 9.18365 0.416504 19.9993C0.416504 30.815 9.18414 39.5827 19.9998 39.5827Z" fill="#FD853A"/>
<path d="M11.396 9.97274C11.396 9.61012 11.54 9.26235 11.7965 9.00593C12.0529 8.74952 12.4006 8.60547 12.7633 8.60547H22.7899L28.4869 13.3909V30.0261C28.4869 30.2056 28.4515 30.3834 28.3828 30.5493C28.3141 30.7152 28.2134 30.8659 28.0864 30.9929C27.9595 31.1198 27.8088 31.2206 27.6429 31.2893C27.477 31.358 27.2992 31.3933 27.1196 31.3933H12.7633C12.5837 31.3933 12.4059 31.358 12.24 31.2893C12.0742 31.2206 11.9234 31.1198 11.7965 30.9929C11.6695 30.8659 11.5688 30.7152 11.5001 30.5493C11.4314 30.3834 11.396 30.2056 11.396 30.0261V9.97274Z" fill="white"/>
<path d="M22.79 8.60547V12.0237C22.79 12.3863 22.9341 12.734 23.1905 12.9905C23.4469 13.2469 23.7947 13.3909 24.1573 13.3909H28.487L22.79 8.60547Z" fill="#1D2939"/>
<path fill-rule="evenodd" clip-rule="evenodd" d="M29.9669 18.0586L22.4177 26.5923L22.2457 28.7215L22.1304 30.1412L23.5254 29.8538L25.618 29.4233L33.1672 20.8893L29.9669 18.0586Z" fill="#1D2939"/>
<path d="M22.4176 26.5923L29.9668 18.0586L33.167 20.8893L25.6175 29.4233L23.5249 29.8538L22.1299 30.1412L22.2452 28.7215L22.4176 26.5923Z" fill="#1D2939"/>
<path d="M33.1671 20.8893L25.6182 29.4233L23.5256 29.8542C23.4636 29.5523 23.3053 29.2787 23.0745 29.0745C22.8437 28.8703 22.5528 28.7466 22.2456 28.7219L22.4179 26.5923L29.9675 18.0586L33.1671 20.8893Z" fill="#1D2939"/>
<path d="M33.1566 20.881C33.158 20.8822 33.1591 20.8836 33.1599 20.8852C33.1607 20.8868 33.1612 20.8885 33.1613 20.8903C33.1615 20.8921 33.1612 20.8939 33.1607 20.8956C33.1601 20.8973 33.1592 20.8989 33.158 20.9002L25.7797 29.2403C25.768 29.2538 25.7488 29.2395 25.7573 29.2235C25.8721 29.0114 25.9115 28.7666 25.8693 28.5292C25.8271 28.2918 25.7056 28.0756 25.5248 27.9161C25.3339 27.747 25.0888 27.6518 24.8339 27.6477C24.5789 27.6437 24.3309 27.731 24.1347 27.894C24.1326 27.8965 24.1295 27.898 24.1262 27.8983C24.1229 27.8985 24.1196 27.8974 24.1171 27.8952C24.1146 27.8931 24.1131 27.89 24.1128 27.8867C24.1126 27.8834 24.1137 27.8801 24.1159 27.8776C24.2539 27.6631 24.3104 27.4062 24.2754 27.1536C24.2403 26.9009 24.1159 26.6692 23.9247 26.5004C23.7421 26.3385 23.5097 26.2441 23.266 26.2329C23.0223 26.2217 22.7821 26.2944 22.5855 26.4388C22.5727 26.4484 22.5577 26.4334 22.5688 26.4213L29.9578 18.0689C29.9601 18.0662 29.9634 18.0647 29.967 18.0645C29.9705 18.0643 29.974 18.0655 29.9766 18.0678L33.1566 20.881Z" fill="#1D2939"/>
<path d="M33.6398 20.3561L30.4396 17.5254L29.9678 18.0584L33.168 20.8898L33.6398 20.3561Z" fill="white"/>
<path d="M29.7637 18.2832L32.9639 21.1142" stroke="#1D2939"/>
<path d="M33.4703 17.3544L33.4383 17.3259C33.2303 17.1418 32.988 17.0006 32.7254 16.9101C32.4628 16.8197 32.1849 16.7819 31.9077 16.7989C31.6304 16.8158 31.3593 16.8872 31.1096 17.009C30.86 17.1308 30.6368 17.3005 30.4527 17.5086L30.4385 17.5246L33.6387 20.3556L33.653 20.3396C33.837 20.1316 33.9783 19.8894 34.0687 19.6268C34.1591 19.3642 34.197 19.0864 34.18 18.8092C34.163 18.5319 34.0916 18.2608 33.9699 18.0112C33.8481 17.7616 33.6784 17.5384 33.4703 17.3544Z" fill="#1D2939"/>
<path fill-rule="evenodd" clip-rule="evenodd" d="M21.3659 18.9323H21.1067L22.7852 22.1368H25.2826C25.3235 22.1368 25.3634 22.139 25.4029 22.1436L21.9441 26.0535H21.7223C21.1334 26.0535 20.6541 25.5742 20.6541 24.9853V23.205C20.6541 22.6161 21.1334 22.1368 21.7223 22.1368H21.9815L20.3031 18.9323H18.8688L17.1904 22.1368H17.4496C18.0385 22.1368 18.5178 22.6161 18.5178 23.205V24.9853C18.5178 25.5742 18.0385 26.0535 17.4496 26.0535H13.889C13.3001 26.0535 12.8208 25.5742 12.8208 24.9853V23.205C12.8208 22.6161 13.3001 22.1368 13.889 22.1368H16.3864L18.0649 18.9323H17.8056C17.2167 18.9323 16.7375 18.453 16.7375 17.8641V16.0838C16.7375 15.4949 17.2167 15.0156 17.8056 15.0156H21.3663C21.9552 15.0156 22.4344 15.4949 22.4344 16.0838V17.8641C22.4344 18.453 21.9548 18.9323 21.3659 18.9323Z" fill="#1D2939"/>
</g>
<defs>
<clipPath id="clip0_1059_15058">
<rect width="40" height="40" fill="white"/>
</clipPath>
</defs>
</svg>
