<svg width="40" height="40" viewBox="0 0 40 40" fill="none" xmlns="http://www.w3.org/2000/svg">
<g clip-path="url(#clip0_1059_15072)">
<path d="M20 40C31.0458 40 40 31.0458 40 20C40 8.95418 31.0458 0 20 0C8.95418 0 0 8.95418 0 20C0 31.0458 8.95418 40 20 40Z" fill="#FDB022"/>
<path fill-rule="evenodd" clip-rule="evenodd" d="M9.76013 8.36328C9.38979 8.36328 9.03462 8.5104 8.77276 8.77227C8.51089 9.03414 8.36377 9.38931 8.36377 9.75965V30.2396C8.36377 30.61 8.51089 30.9652 8.77276 31.227C9.03462 31.4889 9.38979 31.636 9.76013 31.636H24.422C24.6053 31.636 24.7869 31.5999 24.9563 31.5297C25.1257 31.4595 25.2797 31.3567 25.4093 31.227C25.539 31.0974 25.6418 30.9434 25.712 30.774C25.7822 30.6046 25.8183 30.423 25.8183 30.2396V22.5451H24.3638V21.4542H25.8183V13.2506L20.0001 8.36328H9.76013Z" fill="#0C111D"/>
<path fill-rule="evenodd" clip-rule="evenodd" d="M20.0002 11.8542V8.36328L24.5442 12.1804C24.0342 12.5035 23.5467 12.8611 23.0853 13.2506H21.3966C21.0262 13.2506 20.6711 13.1034 20.4092 12.8416C20.1473 12.5797 20.0002 12.2245 20.0002 11.8542ZM19.6529 17.4542H11.6366C11.5401 17.4542 11.4477 17.4925 11.3795 17.5607C11.3113 17.6289 11.2729 17.7214 11.2729 17.8178C11.2729 17.9143 11.3113 18.0068 11.3795 18.075C11.4477 18.1432 11.5401 18.1815 11.6366 18.1815H19.2668C19.389 17.9371 19.5177 17.6942 19.6529 17.4542ZM18.3522 20.3633H11.6366C11.5401 20.3633 11.4477 20.4016 11.3795 20.4698C11.3113 20.538 11.2729 20.6305 11.2729 20.7269C11.2729 20.8234 11.3113 20.9159 11.3795 20.984C11.4477 21.0522 11.5401 21.0906 11.6366 21.0906H18.1202C18.1919 20.8484 18.2693 20.6058 18.3522 20.3633ZM17.6293 23.2724H11.6366C11.5401 23.2724 11.4477 23.3107 11.3795 23.3789C11.3113 23.4471 11.2729 23.5396 11.2729 23.636C11.2729 23.7325 11.3113 23.8249 11.3795 23.8931C11.4477 23.9613 11.5401 23.9996 11.6366 23.9996H17.5173L17.5362 23.9807C17.5617 23.7469 17.5926 23.5109 17.6293 23.2724ZM18.182 15.2724C18.2785 15.2724 18.371 15.2341 18.4392 15.1659C18.5074 15.0977 18.5457 15.0052 18.5457 14.9087C18.5457 14.8123 18.5074 14.7198 18.4392 14.6516C18.371 14.5834 18.2785 14.5451 18.182 14.5451H11.6366C11.5401 14.5451 11.4477 14.5834 11.3795 14.6516C11.3113 14.7198 11.2729 14.8123 11.2729 14.9087C11.2729 15.0052 11.3113 15.0977 11.3795 15.1659C11.4477 15.2341 11.5401 15.2724 11.6366 15.2724H18.182Z" fill="white"/>
<path d="M31.6362 10.9082L15.6362 26.9082V28.3431L31.6362 10.9082Z" fill="white"/>
<path fill-rule="evenodd" clip-rule="evenodd" d="M18.2995 25.4409C21.0733 25.1355 23.997 24.3675 26.389 22.4573C25.9017 22.3446 25.4544 22.1664 25.0799 21.9737C27.1715 22.2922 28.5275 20.6315 29.6144 18.8064C28.7671 18.9155 27.9235 18.7627 27.2726 18.5446C28.3417 18.5446 29.8035 17.5627 30.5017 17.0427V17.0391C31.2108 15.33 31.6362 13.3046 31.6362 10.9082C23.0635 10.9082 18.7486 18.5598 18.234 24.3104L15.6362 26.9082V28.3431L18.2995 25.4413V25.4409Z" fill="white"/>
<path fill-rule="evenodd" clip-rule="evenodd" d="M18.3315 25.4385L28.8035 14.0098L19.4628 25.2861C19.0871 25.3459 18.71 25.3969 18.3319 25.4389L18.3315 25.4385Z" fill="#0C111D"/>
</g>
<defs>
<clipPath id="clip0_1059_15072">
<rect width="40" height="40" fill="white"/>
</clipPath>
</defs>
</svg>
