<svg width="32" height="32" viewBox="0 0 32 32" fill="none" xmlns="http://www.w3.org/2000/svg">
<g clip-path="url(#clip0_994_23993)">
<path d="M16.0002 31.6663C24.6527 31.6663 31.6668 24.6522 31.6668 15.9997C31.6668 7.34712 24.6527 0.333008 16.0002 0.333008C7.34761 0.333008 0.333496 7.34712 0.333496 15.9997C0.333496 24.6522 7.34761 31.6663 16.0002 31.6663Z" fill="#F670C7"/>
<path d="M25.115 8.02441H10.8726V25.1153H25.115V8.02441Z" fill="white"/>
<path d="M23.406 11.7275H22.2666V16.8548H23.406V11.7275Z" fill="#1D2939"/>
<path d="M21.3303 14.0059H20.1909V16.8543H21.3303V14.0059Z" fill="#1D2939"/>
<path d="M17.5196 20.1778C17.6329 20.1778 17.7416 20.1328 17.8217 20.0526C17.9018 19.9725 17.9468 19.8638 17.9468 19.7505C17.9468 19.6372 17.9018 19.5285 17.8217 19.4484C17.7416 19.3683 17.6329 19.3232 17.5196 19.3232C17.4062 19.3232 17.2976 19.3683 17.2174 19.4484C17.1373 19.5285 17.0923 19.6372 17.0923 19.7505C17.0923 19.8638 17.1373 19.9725 17.2174 20.0526C17.2976 20.1328 17.4062 20.1778 17.5196 20.1778Z" fill="#1D2939"/>
<path d="M16.4876 19.6084H13.6392V19.8932H16.4876V19.6084Z" fill="#1D2939"/>
<path d="M17.5196 21.6495C17.6329 21.6495 17.7416 21.6045 17.8217 21.5243C17.9018 21.4442 17.9468 21.3355 17.9468 21.2222C17.9468 21.1089 17.9018 21.0002 17.8217 20.9201C17.7416 20.8399 17.6329 20.7949 17.5196 20.7949C17.4062 20.7949 17.2976 20.8399 17.2174 20.9201C17.1373 21.0002 17.0923 21.1089 17.0923 21.2222C17.0923 21.3355 17.1373 21.4442 17.2174 21.5243C17.2976 21.6045 17.4062 21.6495 17.5196 21.6495Z" fill="#1D2939"/>
<path d="M16.4876 21.0801H13.6392V21.3649H16.4876V21.0801Z" fill="#1D2939"/>
<path d="M17.5196 23.1211C17.5757 23.1211 17.6312 23.1101 17.6831 23.0886C17.7349 23.0672 17.782 23.0357 17.8217 22.996C17.8614 22.9563 17.8928 22.9092 17.9143 22.8574C17.9358 22.8055 17.9468 22.75 17.9468 22.6939C17.9468 22.6378 17.9358 22.5822 17.9143 22.5304C17.8928 22.4785 17.8614 22.4314 17.8217 22.3917C17.782 22.3521 17.7349 22.3206 17.6831 22.2991C17.6312 22.2777 17.5757 22.2666 17.5196 22.2666C17.4062 22.2666 17.2976 22.3116 17.2174 22.3917C17.1373 22.4719 17.0923 22.5806 17.0923 22.6939C17.0923 22.8072 17.1373 22.9159 17.2174 22.996C17.2976 23.0761 17.4062 23.1211 17.5196 23.1211Z" fill="#1D2939"/>
<path d="M16.4876 22.5518H13.6392V22.8366H16.4876V22.5518Z" fill="#1D2939"/>
<path d="M19.1333 21.1274C19.1333 21.4267 19.1922 21.723 19.3068 21.9995C19.4213 22.2759 19.5891 22.5272 19.8007 22.7388C20.0123 22.9504 20.2636 23.1182 20.54 23.2327C20.8165 23.3473 21.1128 23.4062 21.4121 23.4062C21.7113 23.4062 22.0077 23.3473 22.2841 23.2327C22.5606 23.1182 22.8118 22.9504 23.0234 22.7388C23.235 22.5272 23.4029 22.2759 23.5174 21.9995C23.6319 21.723 23.6909 21.4267 23.6909 21.1274C23.6909 20.523 23.4508 19.9434 23.0234 19.5161C22.5961 19.0887 22.0165 18.8486 21.4121 18.8486C20.8077 18.8486 20.2281 19.0887 19.8007 19.5161C19.3734 19.9434 19.1333 20.523 19.1333 21.1274Z" fill="#1D2939"/>
<path fill-rule="evenodd" clip-rule="evenodd" d="M21.6969 18.8661V20.9409L23.5982 21.7727C23.5442 21.9555 23.4674 22.1309 23.3695 22.2945L21.5168 21.4838L20.3945 23.1667C20.2241 23.0815 20.0651 22.9753 19.9211 22.8505L20.9825 21.2582L19.2124 20.5296C19.2623 20.3455 19.3352 20.1684 19.4295 20.0026L21.1272 20.7022V18.8663C21.3163 18.8427 21.5077 18.8424 21.6969 18.8661Z" fill="white"/>
<path d="M11.6536 16.8607L8.57778 19.9365C8.39394 20.1203 8.14459 20.2236 7.8846 20.2236C7.62461 20.2236 7.37526 20.1203 7.19142 19.9365C7.00758 19.7526 6.9043 19.5033 6.9043 19.2433C6.9043 18.9833 7.00758 18.734 7.19142 18.5501L10.2743 15.4678C10.6154 16.0362 11.0885 16.514 11.6536 16.8607Z" fill="#1D2939"/>
<path fill-rule="evenodd" clip-rule="evenodd" d="M9.13525 13.3221C9.13525 15.9142 11.2431 18.0221 13.8353 18.0221C16.4277 18.0221 18.5353 15.9142 18.5353 13.3221C18.5353 10.7299 16.4274 8.62207 13.8353 8.62207C11.2431 8.62207 9.13525 10.7299 9.13525 13.3221Z" fill="#1D2939"/>
<path d="M13.8352 16.6148C15.6537 16.6148 17.1275 15.1407 17.1275 13.3226C17.1275 11.5044 15.6537 10.0303 13.8352 10.0303C12.0171 10.0303 10.543 11.5044 10.543 13.3226C10.543 15.1407 12.0171 16.6148 13.8352 16.6148Z" fill="white"/>
</g>
<defs>
<clipPath id="clip0_994_23993">
<rect width="32" height="32" fill="white"/>
</clipPath>
</defs>
</svg>
