<svg width="32" height="32" viewBox="0 0 32 32" fill="none" xmlns="http://www.w3.org/2000/svg">
<g clip-path="url(#clip0_994_16726)">
<path d="M16.0002 31.6663C24.6527 31.6663 31.6668 24.6522 31.6668 15.9997C31.6668 7.34712 24.6527 0.333008 16.0002 0.333008C7.34761 0.333008 0.333496 7.34712 0.333496 15.9997C0.333496 24.6522 7.34761 31.6663 16.0002 31.6663Z" fill="#53B1FD"/>
<path d="M15.9999 9.16355V8.02416C15.9999 7.72197 15.8799 7.43216 15.6662 7.21849C15.4525 7.00481 15.1627 6.88477 14.8605 6.88477H8.02416C7.72197 6.88477 7.43216 7.00481 7.21849 7.21849C7.00481 7.43216 6.88477 7.72197 6.88477 8.02416V13.7211C6.88477 13.8708 6.91424 14.0189 6.9715 14.1572C7.02876 14.2954 7.11268 14.421 7.21849 14.5268C7.32429 14.6326 7.4499 14.7165 7.58813 14.7738C7.72637 14.8311 7.87453 14.8605 8.02416 14.8605H14.8605C15.0102 14.8605 15.1583 14.8311 15.2966 14.7738C15.4348 14.7165 15.5604 14.6326 15.6662 14.5268C15.772 14.421 15.8559 14.2954 15.9132 14.1572C15.9704 14.0189 15.9999 13.8708 15.9999 13.7211V10.8726H17.709L15.9999 9.16355Z" fill="#101828"/>
<path d="M14.0061 8.59375H8.30908V9.16345H14.0061V8.59375Z" fill="white"/>
<path d="M14.0061 10.5879H8.30908V11.1576H14.0061V10.5879Z" fill="white"/>
<path d="M11.1576 12.582H8.30908V13.1517H11.1576V12.582Z" fill="white"/>
<path d="M23.3398 20.2572C23.7517 20.2042 24.1302 20.0031 24.4045 19.6914C24.6788 19.3797 24.8302 18.9787 24.8305 18.5635H23.4062L23.3398 20.2572Z" fill="white"/>
<path d="M18.2787 18.5635H16.8545C16.8546 18.9942 17.0175 19.409 17.3105 19.7247C17.6036 20.0404 18.005 20.2338 18.4345 20.266L18.2787 18.5635Z" fill="white"/>
<path d="M19.581 11.4424H22.1853L24.6231 12.0935C24.7726 12.1789 24.8969 12.3023 24.9834 12.4512C25.0698 12.6002 25.1153 12.7693 25.1153 12.9415V18.5636H23.4062L23.1621 24.7895C21.86 25.2236 20.1509 25.2236 18.8486 24.7895L18.2789 18.5636H16.5698L16.6513 12.9415C16.6513 12.5912 16.839 12.2676 17.1435 12.0935L19.581 11.4424Z" fill="#101828"/>
<path d="M22.1852 11.4424L21.4042 13.7895L20.8829 15.3488L20.3622 13.783L19.5806 11.4424H22.1852Z" fill="white"/>
<path d="M21.4043 13.7891L20.8833 15.3484L20.3623 13.7826L20.8702 11.7676L21.4043 13.7891Z" fill="#101828"/>
<path d="M23.1621 9.16355C23.1621 7.91734 22.1452 6.88477 20.8833 6.88477C19.6294 6.88477 18.6045 7.90452 18.6045 9.16355C18.6047 9.53059 18.6936 9.89213 18.8637 10.2174C19.0339 10.5426 19.2801 10.8218 19.5815 11.0313V11.4423H22.1856V11.0313C22.4869 10.8217 22.733 10.5424 22.903 10.2172C23.073 9.89202 23.1619 9.53053 23.1621 9.16355Z" fill="white"/>
<path d="M23.1542 9.03452C22.7189 9.12079 22.2762 9.16401 21.8325 9.16355C20.6515 9.16355 19.5688 8.87101 18.7407 8.38506C19.0598 7.51143 19.8995 6.88477 20.8828 6.88477C22.0945 6.88477 23.0898 7.83815 23.1542 9.03452Z" fill="#101828"/>
</g>
<defs>
<clipPath id="clip0_994_16726">
<rect width="32" height="32" fill="white"/>
</clipPath>
</defs>
</svg>
